<?xml version="1.0" standalone="no"?>
<!DOCTYPE svg PUBLIC "-//W3C//DTD SVG 20010904//EN"
 "http://www.w3.org/TR/2001/REC-SVG-20010904/DTD/svg10.dtd">
<svg version="1.0" xmlns="http://www.w3.org/2000/svg"
 width="992.000000pt" height="992.000000pt" viewBox="0 0 992.000000 992.000000"
 preserveAspectRatio="xMidYMid meet">
<metadata>
Created by potrace 1.14, written by Peter Selinger 2001-2017
</metadata>
<g transform="translate(0.000000,992.000000) scale(0.100000,-0.100000)"
fill="#000000" stroke="none">
<path d="M1849 9736 c-2 -2 -33 -6 -69 -9 -36 -3 -90 -11 -120 -17 -30 -6 -66
-13 -80 -15 -14 -3 -36 -7 -50 -10 -14 -4 -29 -7 -35 -8 -5 -2 -16 -6 -22 -10
-7 -5 -17 -5 -23 -2 -5 3 -10 1 -10 -5 0 -6 -4 -9 -9 -6 -14 9 -364 -131 -381
-153 -3 -3 -25 -17 -50 -30 -59 -31 -154 -93 -158 -103 -2 -5 -8 -8 -13 -8 -9
0 -30 -16 -74 -55 -13 -12 -38 -32 -56 -45 -53 -40 -187 -179 -255 -265 -35
-44 -68 -85 -73 -91 -38 -47 -197 -324 -185 -324 2 0 -3 -11 -11 -24 -14 -20
-72 -170 -78 -201 -2 -5 -6 -15 -10 -21 -4 -7 -9 -29 -13 -50 -3 -22 -8 -43
-11 -47 -3 -5 -7 -23 -9 -40 -3 -18 -8 -39 -11 -47 -3 -8 -7 -31 -10 -50 -2
-19 -6 -42 -9 -50 -3 -8 -9 -42 -12 -75 -9 -84 -9 -5935 0 -6015 5 -36 10 -76
13 -90 3 -14 8 -41 10 -60 2 -19 6 -44 8 -55 9 -40 28 -111 36 -135 5 -14 15
-45 22 -70 7 -25 16 -49 19 -55 4 -5 15 -32 25 -60 25 -69 87 -199 97 -203 4
-2 6 -8 2 -13 -3 -5 0 -9 5 -9 6 0 11 -6 11 -13 0 -7 16 -36 35 -64 19 -29 35
-55 35 -58 0 -3 9 -15 20 -27 11 -12 20 -28 20 -35 0 -8 5 -11 10 -8 6 3 10 1
10 -6 0 -7 19 -36 42 -63 24 -28 50 -59 58 -69 26 -32 165 -171 201 -201 77
-64 217 -166 227 -166 7 0 12 -4 12 -8 0 -5 15 -16 32 -25 18 -10 52 -28 76
-41 23 -14 42 -21 42 -18 0 4 4 3 8 -3 7 -10 60 -41 77 -46 13 -3 71 -26 110
-44 17 -7 44 -17 60 -21 17 -4 35 -10 40 -14 6 -4 24 -11 40 -15 17 -4 37 -9
45 -11 58 -14 108 -26 125 -30 11 -2 31 -6 45 -9 29 -6 78 -14 140 -23 65 -10
6301 -9 6390 1 41 5 79 11 83 14 5 3 23 7 40 8 18 2 46 7 62 10 17 4 37 8 45
10 8 2 17 4 20 5 3 1 10 3 15 5 6 1 12 3 15 4 3 1 16 4 30 7 14 2 32 7 40 11
8 3 17 7 20 8 82 20 313 122 353 154 9 8 17 11 17 6 0 -4 15 4 34 19 19 14 37
26 40 26 10 0 138 91 211 150 74 60 235 215 235 226 0 4 10 16 23 28 27 26
101 124 144 191 18 27 36 55 40 61 46 60 182 357 196 429 2 6 6 15 10 21 4 7
9 29 13 50 3 22 10 47 15 57 5 9 8 17 5 17 -2 0 0 17 6 38 5 20 11 51 13 67 3
17 7 39 9 50 18 77 21 465 21 3090 0 2621 -3 3018 -20 3099 -9 42 -17 92 -19
114 0 12 -4 22 -9 22 -4 0 -6 3 -6 8 1 4 0 9 -1 12 -1 3 -3 14 -5 25 -5 37
-13 70 -24 98 -6 15 -8 27 -4 27 3 0 -2 9 -12 20 -10 11 -15 20 -12 20 11 0
-40 127 -94 234 -74 147 -187 317 -279 420 -76 84 -214 215 -275 260 -22 17
-42 33 -45 36 -11 14 -204 135 -212 132 -4 -1 -8 3 -8 9 0 5 -4 8 -9 5 -5 -4
-11 -3 -13 1 -9 22 -368 173 -368 156 0 -3 -7 0 -15 7 -8 7 -15 10 -15 7 0 -3
-21 0 -47 8 -46 13 -139 33 -192 41 -14 2 -37 7 -51 11 -26 7 -6323 16 -6331
9z"/>
</g>
</svg>
